# xmcd
#
# Track frame offsets:
#	150
#	17284
#	33017
#	53363
#	71854
#	90500
#	110668
#	127320
#	138098
#
# Disc length: 2047 seconds
#
# Revision: 0
# Processed by: cddbd v1.5.2PL0 Copyright (c) Steve Scherf et al.
# Submitted via: EasyCDDAExtractor 16.1.0.1
#
DISCID=6d07fd09
DTITLE=@nonyme - Besoin de toi
DYEAR=1997
DGENRE=Zouk
TTITLE0=Besoin de toi
TTITLE1=Sé ou
TTITLE2=Lésé mwen
TTITLE3=Couleurs
TTITLE4=La vie
TTITLE5=Joie
TTITLE6=Tou sel
TTITLE7=Sé ou (acoustique)
TTITLE8=Outro
EXTD=
EXTT0=
EXTT1=
EXTT2=
EXTT3=
EXTT4=
EXTT5=
EXTT6=
EXTT7=
EXTT8=
PLAYORDER=
